<svg version="1.1" id="Layer_1" xmlns="http://www.w3.org/2000/svg" xmlns:xlink="http://www.w3.org/1999/xlink" x="0px" y="0px"
	 width="100%" viewBox="0 0 512 512" enable-background="new 0 0 512 512" xml:space="preserve">
<path fill="#FFFFFF" opacity="1.000000" stroke="none" 
	d="
M274.000000,513.000000 
	C184.021835,513.000000 94.543648,512.978394 5.065606,513.085693 
	C1.786201,513.089600 0.895049,512.625854 0.897541,509.067383 
	C1.015124,341.108429 1.016991,173.149414 0.891119,5.190494 
	C0.888296,1.423813 1.861301,0.914268 5.307562,0.916235 
	C173.099915,1.011988 340.892303,1.011662 508.684662,0.918020 
	C512.109802,0.916108 513.113342,1.394450 513.110413,5.182690 
	C512.982666,173.141617 512.985107,341.100647 513.101624,509.059601 
	C513.104065,512.602173 512.238403,513.091980 508.942169,513.087280 
	C430.794891,512.974976 352.647430,513.000000 274.000000,513.000000 
z"/>
<path fill="#222A3F" opacity="1.000000" stroke="none" 
	d="
M344.605957,422.852905 
	C344.583618,425.492310 343.539368,426.058380 341.437164,426.045410 
	C327.615814,425.960114 313.791931,425.881012 299.973022,426.082581 
	C296.493988,426.133301 296.836426,424.290436 296.826111,422.050995 
	C296.764648,408.732208 296.645203,395.413727 296.438293,381.652344 
	C294.543701,374.845490 295.718506,368.363281 295.548126,361.448914 
	C295.292206,347.003357 295.337585,333.043152 295.515503,318.601379 
	C295.371307,294.893097 295.358398,271.666412 295.459900,248.020874 
	C294.544678,244.042267 296.278442,240.563263 296.011810,237.749451 
	C294.701385,242.978012 290.892273,247.841354 289.011383,253.871948 
	C280.134491,272.570526 271.224762,290.845703 262.851349,309.785553 
	C256.514679,322.266144 251.043472,334.744324 245.128510,347.011047 
	C241.234406,355.086792 237.617767,363.294067 233.296722,371.534241 
	C228.848007,376.999329 227.007690,383.411377 224.049454,389.640930 
	C221.744385,398.424255 217.469803,405.947388 213.412369,413.557983 
	C212.357605,415.536438 210.919449,415.536804 209.614883,413.630463 
	C209.144135,412.942566 208.715454,412.227234 208.374619,411.468445 
	C200.607651,394.177765 192.020294,377.270477 184.215195,359.583282 
	C184.061859,358.701263 184.053513,358.191559 184.161423,357.304382 
	C188.187897,347.136169 193.026611,337.747009 197.524872,328.201385 
	C199.917160,323.124756 202.324036,318.062683 204.266296,312.395691 
	C207.915436,306.836578 209.929504,300.865753 212.992767,295.017822 
	C218.896362,281.949951 225.166275,269.455688 231.037445,256.369873 
	C233.954849,250.082047 237.295837,244.405289 239.844147,237.938812 
	C245.931381,224.976410 251.958603,212.391617 257.781494,199.710144 
	C258.671295,197.772263 259.404968,195.676208 261.539185,194.110245 
	C276.884369,162.068756 291.979156,130.247757 306.828156,98.312469 
	C308.504517,94.707222 310.380310,93.499657 314.279053,93.640274 
	C323.096313,93.958267 331.933380,93.795021 340.761169,93.706215 
	C343.082886,93.682861 344.772736,93.936676 344.309875,97.296654 
	C345.423462,99.510193 345.594849,101.493011 345.588074,103.510490 
	C345.549469,115.001816 345.773743,126.494110 345.469452,138.476624 
	C345.792450,173.690704 345.506561,208.413376 345.636505,243.135376 
	C345.648895,246.447433 345.247437,249.771957 345.909943,253.555023 
	C345.027985,280.383270 345.986755,306.747131 345.478455,333.592773 
	C345.792877,362.059784 345.571106,390.035431 345.586395,418.010773 
	C345.587189,419.510956 345.503082,421.013184 344.605957,422.852905 
z"/>
<path fill="#222A3F" opacity="1.000000" stroke="none" 
	d="
M126.533051,422.867371 
	C126.516159,425.422913 125.565613,426.062714 123.415489,426.048340 
	C109.583878,425.955750 95.751015,425.951080 81.919464,426.047241 
	C79.567780,426.063599 78.508408,425.438232 78.825287,422.991547 
	C78.952644,422.008179 78.845131,420.994415 78.845131,419.994507 
	C78.845085,313.169769 78.883446,206.344955 78.721642,99.520470 
	C78.714249,94.636826 79.914970,93.310600 84.702507,93.626610 
	C91.505653,94.075661 98.401192,94.203262 105.181625,93.607452 
	C111.655334,93.038597 116.096451,94.573029 117.887680,101.627869 
	C122.411926,106.322594 123.867836,112.322701 126.543625,117.609177 
	C130.221359,124.875175 133.578903,132.316299 137.240540,140.014862 
	C152.770462,172.928436 168.113419,205.519012 183.663849,238.425400 
	C189.476440,251.091141 195.118851,263.425171 201.209045,275.543854 
	C202.659576,278.430206 202.883286,281.055664 201.585175,284.056763 
	C200.204224,287.249420 198.665848,290.359894 197.042419,293.846252 
	C192.425995,303.238373 187.984055,312.300140 183.956787,321.969849 
	C181.705124,326.230408 179.980316,330.348236 177.697220,334.158203 
	C175.822296,337.287079 174.144089,337.305573 172.313141,334.169800 
	C169.908630,330.051727 167.835327,325.745087 165.970154,320.933319 
	C156.849747,302.352051 148.275986,283.931732 139.792526,265.469116 
	C138.810043,263.330963 137.451309,261.447510 135.940460,259.157074 
	C133.930786,252.331390 130.345535,246.646057 127.730034,240.388275 
	C127.293129,242.132889 127.557350,243.815903 127.556839,245.471664 
	C127.539551,301.677429 127.548531,357.883179 127.523918,414.088928 
	C127.522690,416.890839 127.932320,419.757751 126.533051,422.867371 
z"/>
<path fill="#C1C4C9" opacity="1.000000" stroke="none" 
	d="
M401.910461,98.132912 
	C402.835999,97.526230 403.819611,97.363525 403.904297,96.994522 
	C405.428711,90.352310 410.433075,90.711334 415.586121,90.844200 
	C422.905731,91.032928 430.242004,91.098961 437.555084,90.810318 
	C441.586884,90.651192 443.219666,91.702881 442.979645,96.025055 
	C442.629456,102.331238 442.892609,108.671417 442.892609,114.997108 
	C442.892731,215.542267 442.892975,316.087402 442.891479,416.632568 
	C442.891388,422.997559 442.885040,423.002625 436.350494,423.000153 
	C425.530304,422.996094 414.710144,422.984772 403.418701,422.949402 
	C400.673065,420.181488 401.408234,416.883148 401.406128,413.794617 
	C401.361115,347.981842 401.372925,282.169006 401.372498,216.356201 
	C401.372253,181.033890 401.332428,145.711456 401.428528,110.389404 
	C401.439331,106.424309 400.371216,102.433601 401.910461,98.132912 
z"/>
<path fill="#525661" opacity="1.000000" stroke="none" 
	d="
M183.457413,238.990341 
	C178.339478,231.942169 175.563705,223.922516 171.856735,216.378448 
	C164.919434,202.260391 158.524094,187.876999 151.810028,173.647980 
	C146.723831,162.868851 141.492813,152.158035 136.269669,141.062637 
	C134.664566,127.657684 135.587646,114.554886 135.437622,101.476440 
	C135.343170,93.239906 136.231613,92.463676 144.661423,92.543114 
	C147.949554,92.574104 151.311295,91.925362 154.975281,93.422234 
	C155.431427,93.613419 155.762970,93.733109 155.904617,93.837990 
	C158.961990,96.851456 160.314240,100.690132 161.979950,104.290375 
	C175.270233,133.015976 189.010635,161.529388 202.406906,190.203995 
	C211.925812,210.579117 221.693451,230.837494 231.059769,251.284088 
	C231.693512,252.667526 232.128189,254.077255 232.176605,255.906509 
	C229.659378,264.778412 224.498810,272.053833 221.270859,280.209229 
	C219.323807,285.128387 216.737549,289.794495 214.145081,294.766815 
	C211.193604,295.176270 210.582214,292.952728 209.801743,291.267822 
	C201.931000,274.275909 193.794006,257.409515 185.868835,240.443481 
	C185.181381,238.971817 185.177689,237.328278 184.451904,235.892303 
	C184.897614,237.062027 184.976685,238.157227 183.457413,238.990341 
z"/>
<path fill="#9D9EA3" opacity="1.000000" stroke="none" 
	d="
M402.258179,97.356400 
	C403.742218,119.213882 402.874878,140.670349 402.904449,162.111511 
	C403.023895,248.740540 402.950897,335.369812 402.948181,422.460632 
	C402.707794,425.408173 401.291779,426.065277 398.898071,426.048431 
	C385.329468,425.952820 371.759827,426.011688 358.190613,425.987976 
	C356.797791,425.985535 355.023743,426.456757 354.872559,423.712280 
	C355.057709,423.035065 355.261627,422.774323 355.897400,422.268982 
	C362.938629,420.750793 369.617432,421.648956 376.259918,421.397430 
	C381.714966,421.190857 382.206207,420.762146 382.374451,415.335907 
	C382.431213,413.504120 382.393768,411.670349 382.393768,409.837494 
	C382.394409,308.696045 382.390381,207.554596 382.409637,106.413139 
	C382.410309,102.931763 382.033752,99.400696 383.489197,95.571335 
	C383.943756,94.882736 384.163177,94.633026 384.817566,94.139626 
	C389.855865,93.866150 394.461212,93.909149 399.061493,93.776100 
	C401.384888,93.708893 402.438385,94.608658 402.258179,97.356400 
z"/>
<path fill="#C0C3C8" opacity="1.000000" stroke="none" 
	d="
M261.552216,193.790253 
	C255.041000,208.423920 248.219833,222.924347 241.189484,237.706482 
	C238.101120,238.195358 237.537857,235.796158 236.675980,233.956451 
	C220.599442,199.640350 204.592834,165.291901 188.231705,131.109253 
	C184.143631,122.568161 180.301270,113.906364 176.141602,105.395699 
	C175.699707,104.491592 175.302521,103.578529 175.824600,102.232986 
	C177.499634,100.571838 176.870010,98.803062 176.899017,97.211792 
	C177.014023,90.899681 176.975098,90.896927 183.534302,90.894783 
	C190.854065,90.892387 198.193863,91.223045 205.486557,90.778648 
	C210.353287,90.482079 212.886765,92.096489 214.955612,96.550735 
	C229.231934,127.287964 243.769196,157.904099 258.268524,188.537415 
	C259.107483,190.309952 259.625549,192.317078 261.552216,193.790253 
z"/>
<path fill="#9B9DA2" opacity="1.000000" stroke="none" 
	d="
M175.905212,101.615807 
	C180.581909,111.684967 185.068054,121.456993 189.642899,131.187317 
	C205.677124,165.290649 221.736023,199.382370 237.815018,233.464600 
	C238.513000,234.944092 239.502747,236.285919 240.668427,237.840027 
	C238.189743,243.937531 235.399216,249.886887 232.308670,256.040009 
	C214.653168,219.400497 197.282608,182.564316 179.948914,145.710785 
	C171.955414,128.715637 164.033966,111.686600 156.063049,94.307899 
	C158.541870,93.897537 161.096848,94.181068 163.521606,93.743301 
	C169.991074,92.575294 173.946396,95.107018 175.905212,101.615807 
z"/>
<path fill="#828793" opacity="1.000000" stroke="none" 
	d="
M126.761971,423.207977 
	C126.271233,412.793518 126.160271,402.309692 126.156456,391.825836 
	C126.138229,341.723877 126.149063,291.621918 126.149559,241.519974 
	C126.149582,239.721436 126.149574,237.922897 126.149574,236.124359 
	C130.394333,243.574982 135.207932,250.646118 137.226837,259.442993 
	C138.326096,261.972076 138.614807,264.255157 138.614731,266.613556 
	C138.613342,316.659088 138.629730,366.704590 138.598770,416.750122 
	C138.597946,418.080536 138.557114,419.410675 138.183990,421.210938 
	C137.896484,421.994812 137.741486,422.293060 137.210846,422.927643 
	C133.620544,423.222198 130.405838,423.180389 126.761971,423.207977 
z"/>
<path fill="#9A9BA0" opacity="1.000000" stroke="none" 
	d="
M166.340469,320.356323 
	C169.387161,325.616730 171.952057,330.892151 175.031143,337.225159 
	C177.797775,331.606659 180.081085,326.969727 182.662537,322.158752 
	C185.773163,322.477386 185.441605,324.860016 185.442001,326.663055 
	C185.444153,336.445984 186.103165,346.243530 184.965302,356.485596 
	C184.943466,357.438019 184.943527,357.913818 184.896057,358.743958 
	C186.424194,379.072266 185.290863,399.076508 185.507339,419.065674 
	C185.519928,420.228302 185.287003,421.369629 184.501617,422.851501 
	C184.364670,425.486633 183.196716,426.031250 181.160370,426.021759 
	C167.340240,425.957367 153.519669,425.985718 139.699249,425.988678 
	C138.327316,425.988983 136.939117,426.044037 136.863464,423.679443 
	C136.835251,423.263977 136.957321,423.027588 137.023743,422.912354 
	C138.919556,421.277283 141.140152,421.459961 143.285934,421.431671 
	C148.444824,421.363586 153.609268,421.281311 158.762512,421.443726 
	C162.775116,421.570190 164.668137,420.007324 164.410477,415.918793 
	C164.306137,414.262939 164.407806,412.591553 164.407898,410.927246 
	C164.409470,383.465729 164.390106,356.004211 164.434570,328.542755 
	C164.439072,325.766541 163.909378,322.835175 166.340469,320.356323 
z"/>
<path fill="#9C9EA3" opacity="1.000000" stroke="none" 
	d="
M296.490173,318.093384 
	C296.881012,332.189789 296.907013,346.174652 296.827850,360.622925 
	C294.939545,364.535187 293.409637,368.109863 291.272156,371.732330 
	C286.963013,377.282654 284.833893,383.605164 281.958923,389.536987 
	C277.921539,397.867218 274.030853,406.268585 269.697083,415.444855 
	C266.424225,408.543518 263.094421,402.693756 260.891052,395.961243 
	C260.835632,395.370300 260.743774,395.132202 260.458435,394.563416 
	C259.567352,392.130524 260.490479,390.321808 261.365387,388.540710 
	C270.789764,369.355011 279.304565,349.738831 288.803650,330.589233 
	C290.132111,327.911102 291.028076,325.047607 292.419312,322.405609 
	C293.330017,320.676239 293.945709,318.662994 296.490173,318.093384 
z"/>
<path fill="#BEC1C6" opacity="1.000000" stroke="none" 
	d="
M184.717194,423.200012 
	C183.899994,402.095673 183.816467,380.904388 184.584518,359.405884 
	C193.649780,377.519623 202.451035,395.940979 211.665359,415.226929 
	C215.768921,406.583527 219.607376,398.498566 223.721970,390.206726 
	C225.830811,394.795105 224.560226,399.773010 224.804245,404.659180 
	C225.035172,409.283295 224.660599,413.938782 224.917099,418.560181 
	C225.110855,422.051697 223.881897,423.108246 220.413422,423.064423 
	C208.662949,422.915802 196.908585,423.072693 184.717194,423.200012 
z"/>
<path fill="#868A95" opacity="1.000000" stroke="none" 
	d="
M344.826172,423.228271 
	C344.426575,393.907440 344.450531,364.507568 344.590027,334.672546 
	C347.068359,330.069763 349.074707,325.732971 351.081726,321.385040 
	C351.843323,319.735168 352.539764,316.418945 355.985046,319.300049 
	C356.687439,321.828888 356.597778,323.993652 356.598816,326.146301 
	C356.613068,355.672485 356.614899,385.198669 356.593323,414.724854 
	C356.591522,417.196167 356.850861,419.719879 355.401001,422.440369 
	C355.083832,422.815094 354.961304,423.051727 354.907532,423.173767 
	C351.652435,423.246948 348.451080,423.198090 344.826172,423.228271 
z"/>
<path fill="#868B96" opacity="1.000000" stroke="none" 
	d="
M260.602264,393.493652 
	C260.857391,394.083679 260.878967,394.387512 260.914062,395.149872 
	C257.950073,396.364410 258.121613,399.353790 257.006439,401.359741 
	C255.175461,404.653290 253.743912,408.168854 251.614502,412.723206 
	C245.086456,398.672302 239.014618,385.603363 232.969421,372.146545 
	C232.810013,368.566498 234.879074,366.172241 236.106110,363.545105 
	C244.436905,345.708252 252.938736,327.951294 261.676208,309.963684 
	C262.665222,310.144592 263.104401,310.760559 263.611267,311.795624 
	C264.527374,314.790588 263.290314,316.997589 262.252258,319.271118 
	C257.008789,330.755188 251.804214,342.259552 246.085236,353.515839 
	C244.503510,356.629028 244.649933,359.326019 246.075119,362.488708 
	C250.715973,372.787354 256.140259,382.720062 260.602264,393.493652 
z"/>
<path fill="#818590" opacity="1.000000" stroke="none" 
	d="
M344.507874,139.085571 
	C344.153168,125.431702 344.074097,112.054443 344.144897,98.211029 
	C345.582336,98.069809 346.164429,97.250969 346.404480,96.245583 
	C347.683411,90.888817 351.638885,90.307564 356.237610,90.384209 
	C364.347748,90.519371 372.462189,90.464401 380.573944,90.391785 
	C382.748016,90.372322 384.570953,90.549934 385.095337,93.541687 
	C385.252594,93.895927 384.857330,94.037117 384.666565,94.124565 
	C380.731659,96.255424 376.670990,95.199287 372.767670,95.237953 
	C369.113708,95.274132 366.997711,96.664307 365.537903,100.028267 
	C360.319153,112.054359 354.326477,123.725357 348.905518,135.661713 
	C348.089874,137.457687 347.317780,139.424606 344.507874,139.085571 
z"/>
<path fill="#868A95" opacity="1.000000" stroke="none" 
	d="
M155.289291,93.234825 
	C151.120331,93.718384 146.787842,94.134834 142.504150,93.840668 
	C138.224945,93.546799 136.754181,94.746300 136.835342,99.298729 
	C137.077896,112.903992 136.793015,126.518646 136.463593,140.419037 
	C130.143997,128.030533 124.074890,115.352600 118.025452,102.309532 
	C119.658813,99.511902 118.719620,96.793472 118.772461,94.226448 
	C118.824165,91.714142 119.552223,90.670509 122.212997,90.701263 
	C131.858765,90.812767 141.506714,90.758873 151.153687,90.726501 
	C152.916275,90.720581 154.514755,90.831932 155.289291,93.234825 
z"/>
<path fill="#C1C4C9" opacity="1.000000" stroke="none" 
	d="
M291.015411,372.319824 
	C291.592163,367.844818 293.387878,364.309937 296.396179,361.139404 
	C296.728607,367.496643 296.734497,373.906982 296.535889,380.763428 
	C292.258881,379.805267 292.901215,375.465759 291.015411,372.319824 
z"/>
<path fill="#525661" opacity="1.000000" stroke="none" 
	d="
M344.141937,139.287933 
	C346.557007,139.093582 346.863770,137.127838 347.522461,135.717224 
	C353.422455,123.081367 359.327484,110.447098 365.091034,97.748840 
	C366.358734,94.955872 368.015778,93.677132 371.182007,93.891418 
	C375.322083,94.171616 379.491516,94.017967 384.062073,94.131485 
	C384.371643,98.850212 384.177277,103.488396 384.176514,108.126610 
	C384.159332,211.013992 384.125183,313.901428 384.279541,416.788574 
	C384.287109,421.821381 383.102692,423.460419 377.966125,423.121796 
	C370.671753,422.640900 363.323914,422.971588 355.541382,422.885315 
	C355.036621,388.219452 354.989380,353.623810 354.936157,318.566101 
	C353.244080,316.342194 353.544678,314.092804 353.541290,311.978912 
	C353.503113,288.152466 353.489716,264.325897 353.540436,240.499359 
	C351.005280,245.042252 350.192078,250.567688 345.397156,254.042053 
	C343.458893,252.484207 344.091217,250.551865 344.089264,248.800079 
	C344.049042,212.455719 344.054901,176.111313 344.141937,139.287933 
z"/>
<path fill="#525661" opacity="1.000000" stroke="none" 
	d="
M260.898010,393.427490 
	C258.729736,393.939453 258.571472,392.083435 257.985931,390.849823 
	C253.353317,381.089111 248.868744,371.257446 244.163925,361.532104 
	C242.951630,359.026184 243.016602,356.957001 244.210297,354.482422 
	C250.060898,342.353882 255.755142,330.149963 261.516602,317.978271 
	C262.299866,316.323547 263.232391,314.724762 263.036072,312.394653 
	C271.636871,293.504242 280.458710,275.110779 289.144470,256.241302 
	C291.835724,252.844284 291.798859,248.246063 295.703613,245.889038 
	C297.574585,247.511765 296.931366,249.439499 296.935181,251.185379 
	C296.983246,273.202942 296.972107,295.220642 296.915527,317.721619 
	C294.809723,319.175598 294.461823,321.317505 293.636627,323.064880 
	C282.990753,345.607513 272.397003,368.174774 261.802887,390.741821 
	C261.452972,391.487183 261.238007,392.295898 260.898010,393.427490 
z"/>
<path fill="#666A76" opacity="1.000000" stroke="none" 
	d="
M344.939301,254.429901 
	C349.262115,248.646286 350.597382,241.748535 354.984070,234.692780 
	C354.984070,263.083740 354.984070,290.114441 354.957092,317.624573 
	C351.125610,320.989136 351.166962,325.961517 348.703339,329.569977 
	C347.640686,331.126495 347.634857,333.487915 345.003693,334.162720 
	C343.809143,332.522125 344.132843,330.663696 344.131165,328.861786 
	C344.110229,306.648163 344.092834,284.434479 344.152313,262.221008 
	C344.158905,259.762817 344.646301,257.305939 344.939301,254.429901 
z"/>
<path fill="#BCBFC5" opacity="1.000000" stroke="none" 
	d="
M185.176743,356.704987 
	C183.400269,355.451569 184.109283,353.521942 184.053513,351.774384 
	C183.742630,342.031158 184.555298,332.270233 183.281647,322.260132 
	C186.314331,312.439087 191.245392,303.605255 195.702271,294.263763 
	C198.040298,294.689697 198.730423,296.492493 199.330536,298.156769 
	C200.963120,302.684448 203.534378,306.778442 205.222412,311.645203 
	C205.400681,314.096252 204.565842,315.900604 203.706955,317.715332 
	C197.598557,330.621674 191.507019,343.536011 185.176743,356.704987 
z"/>
<path fill="#666A76" opacity="1.000000" stroke="none" 
	d="
M205.568024,311.972595 
	C200.838165,306.990753 199.549423,300.342102 196.105530,294.437439 
	C197.522903,290.449066 198.826996,286.681335 200.633804,283.172424 
	C201.873520,280.764832 201.411270,278.926941 200.352448,276.688507 
	C194.537659,264.395721 188.864426,252.035995 183.112915,239.335144 
	C183.612228,237.884033 184.141251,236.797012 184.869263,235.301071 
	C193.050446,252.706497 201.065170,269.749481 209.070175,286.796997 
	C210.333145,289.486603 211.251297,292.357849 213.561401,294.800110 
	C211.929260,300.956818 208.999908,306.482758 205.568024,311.972595 
z"/>
<path fill="#636873" opacity="1.000000" stroke="none" 
	d="
M290.140198,255.775269 
	C288.477081,263.525482 283.935242,269.618439 281.085022,276.459808 
	C276.448456,287.588989 270.986694,298.374939 265.838867,309.289551 
	C265.361694,310.301300 265.015198,311.505615 263.380493,311.949615 
	C262.688965,311.477448 262.343506,310.954407 261.982544,310.095093 
	C262.513672,305.183319 265.277374,301.501495 267.117645,297.482269 
	C273.732605,283.034851 280.665314,268.732971 287.772583,254.196381 
	C289.322998,253.670212 289.891815,254.399139 290.140198,255.775269 
z"/>
<path fill="#818590" opacity="1.000000" stroke="none" 
	d="
M290.310883,255.940765 
	C289.540924,255.503082 289.072662,254.880219 288.335815,254.137024 
	C289.750916,247.509720 293.267761,241.876450 296.668640,234.811386 
	C297.008514,239.187469 297.178375,242.215897 296.122070,245.590088 
	C293.044983,248.572235 293.383240,253.031860 290.310883,255.940765 
z"/>
<path fill="#525661" opacity="1.000000" stroke="none" 
	d="
M166.782501,319.971344 
	C165.494141,321.953766 166.161606,323.860382 166.158890,325.613678 
	C166.111282,356.346344 166.046677,387.079590 166.215302,417.811432 
	C166.238113,421.968109 165.079315,423.262451 160.923904,423.082001 
	C153.296204,422.750793 145.645096,422.957947 137.546967,422.868896 
	C137.048050,380.921417 136.996704,339.045776 136.969604,297.170105 
	C136.961761,285.039886 137.023468,272.909637 137.165283,260.304413 
	C139.825027,260.783936 140.113541,263.368439 141.065659,265.362762 
	C149.683670,283.414124 158.197998,301.515015 166.782501,319.971344 
z"/>
</svg>